<?xml version="1.0" encoding="UTF-8"?>
<svg xmlns="http://www.w3.org/2000/svg" width="512" height="512" viewBox="0 0 512 512">
  <defs>
    <linearGradient id="calendarGrad" x1="0%" y1="0%" x2="100%" y2="100%">
      <stop offset="0%" stop-color="#4285F4"/>
      <stop offset="100%" stop-color="#1A73E8"/>
    </linearGradient>
    <linearGradient id="headerGrad" x1="0%" y1="0%" x2="100%" y2="100%">
      <stop offset="0%" stop-color="#34A853"/>
      <stop offset="100%" stop-color="#0F9D58"/>
    </linearGradient>
    <filter id="shadow" x="-50%" y="-50%" width="200%" height="200%">
      <feDropShadow dx="0" dy="8" stdDeviation="12" flood-opacity="0.15"/>
    </filter>
  </defs>

  <!-- Main calendar body -->
  <rect x="128" y="96" width="256" height="320" rx="24" ry="24" 
        fill="url(#calendarGrad)" filter="url(#shadow)"/>
  
  <!-- Calendar header -->
  <rect x="128" y="96" width="256" height="64" rx="24" ry="24" 
        fill="url(#headerGrad)"/>
  <rect x="128" y="136" width="256" height="24" fill="url(#headerGrad)"/>
  
  <!-- Binding rings -->
  <circle cx="192" cy="80" r="16" fill="#666" opacity="0.8"/>
  <circle cx="256" cy="80" r="16" fill="#666" opacity="0.8"/>
  <circle cx="320" cy="80" r="16" fill="#666" opacity="0.8"/>
  
  <!-- Ring holes -->
  <circle cx="192" cy="80" r="6" fill="#fff"/>
  <circle cx="256" cy="80" r="6" fill="#fff"/>
  <circle cx="320" cy="80" r="6" fill="#fff"/>
  
  <!-- Calendar grid -->
  <g fill="#fff" opacity="0.9">
    <!-- Week 1 -->
    <circle cx="160" cy="200" r="8"/>
    <circle cx="192" cy="200" r="8"/>
    <circle cx="224" cy="200" r="8"/>
    <circle cx="256" cy="200" r="8"/>
    <circle cx="288" cy="200" r="8"/>
    <circle cx="320" cy="200" r="8"/>
    <circle cx="352" cy="200" r="8"/>
    
    <!-- Week 2 -->
    <circle cx="160" cy="240" r="8"/>
    <circle cx="192" cy="240" r="8"/>
    <circle cx="224" cy="240" r="8"/>
    <circle cx="256" cy="240" r="8"/>
    <circle cx="288" cy="240" r="8"/>
    <circle cx="320" cy="240" r="8"/>
    <circle cx="352" cy="240" r="8"/>
    
    <!-- Week 3 -->
    <circle cx="160" cy="280" r="8"/>
    <circle cx="192" cy="280" r="8"/>
    <circle cx="224" cy="280" r="8"/>
    <circle cx="256" cy="280" r="8"/>
    <circle cx="288" cy="280" r="8"/>
    <circle cx="320" cy="280" r="8"/>
    <circle cx="352" cy="280" r="8"/>
    
    <!-- Week 4 -->
    <circle cx="160" cy="320" r="8"/>
    <circle cx="192" cy="320" r="8"/>
    <circle cx="224" cy="320" r="8"/>
    <circle cx="256" cy="320" r="8"/>
    <circle cx="288" cy="320" r="8"/>
    <circle cx="320" cy="320" r="8"/>
    <circle cx="352" cy="320" r="8"/>
  </g>
  
  <!-- Today highlight -->
  <circle cx="224" cy="240" r="12" fill="#FBBC05" opacity="0.8"/>
  <circle cx="224" cy="240" r="8" fill="#fff"/>
  
  <!-- System tray indicator -->
  <rect x="340" y="360" width="32" height="20" rx="4" ry="4" 
        fill="#fff" opacity="0.9"/>
  <circle cx="348" cy="370" r="3" fill="#34A853"/>
  <circle cx="356" cy="370" r="3" fill="#4285F4"/>
  <circle cx="364" cy="370" r="3" fill="#FBBC05"/>
</svg>