<svg xmlns="http://www.w3.org/2000/svg" width="64" height="64" viewBox="0 0 64 64" role="img" aria-label="Calendar Now Icon">
  <defs>
    <linearGradient id="tg1" x1="0%" y1="0%" x2="100%" y2="100%">
      <stop offset="0%" stop-color="#4285F4"/>
      <stop offset="100%" stop-color="#1A73E8"/>
    </linearGradient>
    <linearGradient id="tg2" x1="0%" y1="0%" x2="100%" y2="100%">
      <stop offset="0%" stop-color="#34A853"/>
      <stop offset="100%" stop-color="#0F9D58"/>
    </linearGradient>
  </defs>

  <!-- compact calendar for small icons -->
  <rect x="16" y="12" width="32" height="40" rx="6" ry="6" fill="url(#tg1)"/>
  <rect x="16" y="12" width="32" height="12" rx="6" ry="6" fill="url(#tg2)"/>

  <!-- small ring holes -->
  <g fill="#fff" opacity="0.9">
    <circle cx="22" cy="10" r="2"/>
    <circle cx="32" cy="10" r="2"/>
    <circle cx="42" cy="10" r="2"/>
  </g>

  <!-- grid dots -->
  <g fill="#fff" opacity="0.95">
    <circle cx="22" cy="24" r="2"/>
    <circle cx="30" cy="24" r="2"/>
    <circle cx="38" cy="24" r="2"/>
    <circle cx="22" cy="30" r="2"/>
    <circle cx="30" cy="30" r="2"/>
    <circle cx="38" cy="30" r="2"/>
    <circle cx="22" cy="36" r="2"/>
    <circle cx="30" cy="36" r="2"/>
    <circle cx="38" cy="36" r="2"/>
  </g>

  <!-- today marker -->
  <circle cx="30" cy="30" r="3" fill="#FBBC05"/>

  <!-- tray indicator -->
  <rect x="44" y="40" width="6" height="4" rx="1" ry="1" fill="#fff" opacity="0.95"/>
  <circle cx="46" cy="42" r="1" fill="#34A853"/>
</svg>